<svg width="568" height="26" viewBox="0 0 568 26" fill="none" xmlns="http://www.w3.org/2000/svg">
<path d="M21.772 14.6657L15.926 3.81466L10.326 14.6657H21.772ZM4.794 21.0017L15.541 0.733664H19.987L30.908 21.0017C32.413 23.7677 33.568 24.5367 35.913 24.5367V25.2367H20.966V24.5367C24.501 24.5367 26.742 23.9067 24.642 19.9857L22.647 16.2757H9.485L8.121 18.9007C5.88 23.2417 7.315 24.5367 11.166 24.5367V25.2367H0V24.5367C2.169 24.5367 3.36 23.6967 4.794 21.0017Z" fill="#0A0500"/>
<path d="M59.9702 12.2857C62.3852 11.5507 63.7152 9.76472 63.7152 7.45473C63.7152 4.89972 62.2812 3.21972 59.4802 2.58973C58.0452 2.27472 56.2602 2.30872 53.9852 2.30872H48.8742V12.7407H54.0542C56.5392 12.7407 58.6402 12.7057 59.9702 12.2857ZM39.7732 24.5367H40.8582C42.8882 24.5367 43.8332 23.6617 43.8332 21.7367V4.23473C43.8332 2.30873 42.8882 1.43372 40.8582 1.43372H39.7732V0.733725H56.9592C61.1252 0.733725 63.3302 0.804724 65.1512 1.57472C67.5312 2.58972 69.0362 4.23473 69.0362 7.45473C69.0362 11.4107 65.4312 13.6157 59.9702 13.7907L68.3012 22.6467C69.9462 24.4317 71.1712 24.5367 72.3622 24.5367V25.2367H64.1352L54.0202 14.3157H48.8742V21.7367C48.8742 23.6617 49.8192 24.5367 52.2692 24.5367H53.2842V25.2367H39.7732V24.5367Z" fill="#0A0500"/>
<path d="M97.438 14.6657L91.592 3.81466L85.992 14.6657H97.438ZM80.46 21.0017L91.207 0.733664H95.653L106.574 21.0017C108.079 23.7677 109.234 24.5367 111.579 24.5367V25.2367H96.632V24.5367C100.167 24.5367 102.408 23.9067 100.308 19.9857L98.313 16.2757H85.151L83.787 18.9007C81.546 23.2417 82.981 24.5367 86.832 24.5367V25.2367H75.666V24.5367C77.835 24.5367 79.026 23.6967 80.46 21.0017Z" fill="#0A0500"/>
<path d="M140.642 18.0612C140.642 16.6962 139.801 14.8062 137.771 13.8962C136.021 13.1252 132.941 13.1962 130.981 13.1962H124.575V23.6972H130.911C137.631 23.6972 140.642 22.4022 140.642 18.0612ZM136.197 11.1652C138.296 10.5002 139.697 9.27517 139.697 6.86017C139.697 4.44517 138.437 3.25417 136.827 2.72917C135.287 2.24017 130.981 2.27517 124.575 2.27517V11.6562C132.731 11.6562 134.621 11.6562 136.197 11.1652ZM115.439 24.5372H116.559C118.485 24.5372 119.535 23.5562 119.535 21.8062V4.16517C119.535 2.41517 118.485 1.43417 116.559 1.43417H115.439V0.734171H132.941C134.761 0.734171 137.282 0.665169 139.697 1.01417C142.952 1.50417 144.982 4.09417 144.982 6.33417C144.982 8.82017 143.757 11.5502 136.197 12.2152V12.2862C143.652 12.2152 146.243 14.6652 146.243 18.6562C146.243 22.8222 142.007 24.3272 138.891 24.8172C136.091 25.2722 132.205 25.2372 129.125 25.2372H115.439V24.5372Z" fill="#0A0500"/>
<path d="M149.998 24.5368H151.118C153.254 24.5368 154.059 23.8018 154.059 21.8068V4.16475C154.059 2.16975 153.254 1.43375 151.118 1.43375H149.998V0.733755H163.159V1.43375H162.039C159.904 1.43375 159.1 2.16975 159.1 4.16475V21.8068C159.1 23.8018 159.904 24.5368 162.039 24.5368H163.159V25.2368H149.998V24.5368Z" fill="#0A0500"/>
<path d="M188.854 14.6657L183.008 3.81466L177.408 14.6657H188.854ZM171.876 21.0017L182.623 0.733664H187.069L197.99 21.0017C199.495 23.7677 200.65 24.5367 202.995 24.5367V25.2367H188.048V24.5367C191.583 24.5367 193.824 23.9067 191.724 19.9857L189.729 16.2757H176.567L175.203 18.9007C172.962 23.2417 174.397 24.5367 178.248 24.5367V25.2367H167.082V24.5367C169.251 24.5367 170.442 23.6967 171.876 21.0017Z" fill="#0A0500"/>
<path d="M206.887 24.5368H207.517C209.687 24.5368 210.877 22.9618 210.877 20.1618V4.40975C210.877 2.48475 209.932 1.43375 208.217 1.43375H206.887V0.733755H216.617L234.19 19.7418V5.80976C234.19 3.00976 232.964 1.43375 230.794 1.43375H229.57V0.733755H239.651V1.43375H239.475C237.305 1.43375 236.08 3.00976 236.08 5.80976V25.2368H232.369L212.768 4.02476V20.1618C212.768 22.9618 213.992 24.5368 216.233 24.5368H217.808V25.2368H206.887V24.5368Z" fill="#0A0500"/>
<path d="M256.096 24.5368H257.461C259.176 24.5368 260.121 23.5218 260.121 21.7368V4.23475C260.121 2.44975 259.176 1.43375 257.461 1.43375H256.096V0.733755H282.663V9.17076H281.368C281.158 4.30476 279.373 2.27476 273.283 2.27476H265.162V12.4608H270.552C273.843 12.4608 274.683 11.1658 274.683 7.73475H275.803V18.7968H274.683C274.683 15.3308 273.843 14.0008 270.552 14.0008H265.162V21.7368C265.162 23.5218 266.247 24.5368 268.172 24.5368H270.763V25.2368H256.096V24.5368Z" fill="#0A0500"/>
<path d="M307.46 12.2857C309.875 11.5507 311.205 9.76472 311.205 7.45473C311.205 4.89972 309.771 3.21972 306.97 2.58973C305.535 2.27472 303.75 2.30872 301.475 2.30872H296.364V12.7407H301.544C304.029 12.7407 306.13 12.7057 307.46 12.2857ZM287.263 24.5367H288.348C290.378 24.5367 291.323 23.6617 291.323 21.7367V4.23473C291.323 2.30873 290.378 1.43372 288.348 1.43372H287.263V0.733725H304.449C308.615 0.733725 310.82 0.804724 312.641 1.57472C315.021 2.58972 316.526 4.23473 316.526 7.45473C316.526 11.4107 312.921 13.6157 307.46 13.7907L315.791 22.6467C317.436 24.4317 318.661 24.5367 319.852 24.5367V25.2367H311.625L301.51 14.3157H296.364V21.7367C296.364 23.6617 297.309 24.5367 299.759 24.5367H300.774V25.2367H287.263V24.5367Z" fill="#0A0500"/>
<path d="M344.928 14.6657L339.082 3.81466L333.482 14.6657H344.928ZM327.95 21.0017L338.697 0.733664H343.143L354.064 21.0017C355.569 23.7677 356.724 24.5367 359.069 24.5367V25.2367H344.122V24.5367C347.657 24.5367 349.898 23.9067 347.798 19.9857L345.803 16.2757H332.641L331.277 18.9007C329.036 23.2417 330.471 24.5367 334.322 24.5367V25.2367H323.156V24.5367C325.325 24.5367 326.516 23.6967 327.95 21.0017Z" fill="#0A0500"/>
<path d="M360.346 12.986C360.346 5.70499 366.961 -1.14441e-05 375.432 -1.14441e-05C378.198 -1.14441e-05 381.068 0.59399 384.078 1.67899C386.599 2.58999 387.439 3.35999 387.439 0.419989H388.489V9.44999H386.809C386.109 5.70499 382.364 1.43399 376.483 1.43399C369.797 1.43399 366.017 6.96499 366.017 12.776C366.017 17.466 369.201 24.607 376.938 24.607C379.633 24.607 381.978 23.697 383.833 22.647V17.431C383.833 15.646 382.818 14.631 381.033 14.631H378.198V13.861H392.829V14.631H391.569C389.469 14.631 388.873 15.401 388.873 19.007C388.873 20.162 389.014 21.877 389.189 23.207C386.003 24.992 380.613 26.007 375.747 26.007C366.541 26.007 360.346 20.651 360.346 12.986Z" fill="#0A0500"/>
<path d="M415.407 12.2857C417.822 11.5507 419.152 9.76472 419.152 7.45473C419.152 4.89972 417.718 3.21972 414.917 2.58973C413.482 2.27472 411.697 2.30872 409.422 2.30872H404.311V12.7407H409.491C411.976 12.7407 414.077 12.7057 415.407 12.2857ZM395.21 24.5367H396.295C398.325 24.5367 399.27 23.6617 399.27 21.7367V4.23473C399.27 2.30873 398.325 1.43372 396.295 1.43372H395.21V0.733725H412.396C416.562 0.733725 418.767 0.804724 420.588 1.57472C422.968 2.58972 424.473 4.23473 424.473 7.45473C424.473 11.4107 420.868 13.6157 415.407 13.7907L423.738 22.6467C425.383 24.4317 426.608 24.5367 427.799 24.5367V25.2367H419.572L409.457 14.3157H404.311V21.7367C404.311 23.6617 405.256 24.5367 407.706 24.5367H408.721V25.2367H395.21V24.5367Z" fill="#0A0500"/>
<path d="M452.875 14.6657L447.029 3.81466L441.429 14.6657H452.875ZM435.897 21.0017L446.644 0.733664H451.09L462.011 21.0017C463.516 23.7677 464.671 24.5367 467.016 24.5367V25.2367H452.069V24.5367C455.604 24.5367 457.845 23.9067 455.745 19.9857L453.75 16.2757H440.588L439.224 18.9007C436.983 23.2417 438.418 24.5367 442.269 24.5367V25.2367H431.103V24.5367C433.272 24.5367 434.463 23.6967 435.897 21.0017Z" fill="#0A0500"/>
<path d="M470.907 24.5368H471.537C473.707 24.5368 474.897 22.9618 474.897 20.1618V4.40975C474.897 2.48475 473.952 1.43375 472.237 1.43375H470.907V0.733755H480.637L498.21 19.7418V5.80976C498.21 3.00976 496.984 1.43375 494.814 1.43375H493.59V0.733755H503.671V1.43375H503.495C501.325 1.43375 500.1 3.00976 500.1 5.80976V25.2368H496.389L476.788 4.02476V20.1618C476.788 22.9618 478.012 24.5368 480.253 24.5368H481.828V25.2368H470.907V24.5368Z" fill="#0A0500"/>
<path d="M507.426 12.986C507.426 5.70498 513.727 0.0349846 523.212 0.0349846C525.488 0.0349846 528.183 0.768984 529.408 1.18898C531.404 1.85398 533.644 3.46498 533.644 0.488985H534.623V9.79998H533.083C532.348 4.65498 528.568 1.71498 523.877 1.71498C517.262 1.71498 513.341 6.19498 513.341 12.916C513.341 19.007 517.507 23.801 524.473 23.801C528.673 23.801 533.154 21.457 534.484 16.871H535.779C534.484 22.891 529.058 25.972 522.443 25.972C513.411 25.972 507.426 21.106 507.426 12.986Z" fill="#0A0500"/>
<path d="M539.86 24.5368H541.225C542.975 24.5368 543.991 23.5218 543.991 21.7368V4.23475C543.991 2.44975 542.975 1.43375 541.225 1.43375H539.86V0.733755H566.953V8.01575H565.797C565.308 4.26975 564.328 2.27476 558.097 2.27476H549.031V11.7248H555.402C558.588 11.7248 559.182 9.80075 559.182 6.93075H560.302V18.0608H559.182C559.182 15.1908 558.588 13.2658 555.402 13.2658H549.031V23.6968H559.567C565.063 23.6968 566.428 21.6668 566.743 16.7658H567.863L567.513 25.2368H539.86V24.5368Z" fill="#0A0500"/>
</svg>
