<svg width="421" height="429" viewBox="0 0 421 429" fill="none" xmlns="http://www.w3.org/2000/svg">
<path d="M321.019 221.657V222.406C321.085 222.164 321.129 221.921 321.173 221.657H321.019ZM321.019 297.292V325.253H294.712C293.654 328.296 292.375 331.251 290.853 334.073H329.839V292.639C327.017 294.426 324.062 295.969 321.019 297.292ZM125.669 325.253H99.3844V297.336C96.3184 296.013 93.3864 294.469 90.5634 292.683V334.073H129.528C128.028 331.251 126.749 328.296 125.669 325.253ZM90.5634 94.775V136.209C93.3864 134.423 96.3184 132.879 99.3844 131.556V103.595H125.669C126.749 100.552 128.028 97.598 129.528 94.775H90.5634ZM290.853 94.775C292.375 97.598 293.654 100.552 294.712 103.595H321.019V131.512C324.062 132.835 327.017 134.379 329.839 136.165V94.775H290.853Z" fill="#0A0500"/>
<path d="M344.173 280.798V348.407H280.688C277.777 351.604 274.668 354.515 271.449 357.227H352.993V270.368C350.259 273.962 347.37 277.49 344.173 280.798ZM271.449 71.6216C274.668 74.3336 277.777 77.2446 280.688 80.4416H344.173V148.029C347.37 151.358 350.259 154.865 352.993 158.459V71.6216H271.449ZM67.4099 71.6216V158.481C70.1439 154.887 73.0329 151.38 76.2299 148.051V80.4416H139.716C142.626 77.2226 145.735 74.3116 148.977 71.6216H67.4099ZM139.716 348.407H76.2299V280.842C73.0329 277.512 70.1439 273.985 67.4099 270.39V357.227H148.955C145.713 354.537 142.604 351.626 139.716 348.407Z" fill="#0A0500"/>
<path d="M386.511 220.885C372.09 227.809 363.357 240.356 354.096 253.675C353.721 254.204 353.368 254.734 352.993 255.241C350.105 259.408 347.26 263.466 344.173 267.325C339.983 272.661 335.441 277.6 329.95 281.834C329.906 281.856 329.884 281.9 329.84 281.922C327.017 284.083 324.084 285.98 321.019 287.545C312.199 292.154 302.254 294.337 290.501 294.337H290.104V297.557C290.28 308.031 288.736 317.116 285.341 325.253C284.04 328.318 282.496 331.251 280.688 334.073C279.718 335.529 278.703 336.984 277.601 338.395C274.734 342.1 271.537 345.385 268.141 348.407C264.657 351.538 260.908 354.404 257.005 357.227C254.535 359.013 251.999 360.755 249.441 362.541C236.145 371.802 223.576 380.535 216.652 394.956L210.191 408.451L203.73 394.956C196.805 380.535 184.258 371.802 170.94 362.541C168.382 360.755 165.868 359.013 163.398 357.227C159.495 354.426 155.746 351.538 152.218 348.407C148.822 345.363 145.647 342.1 142.78 338.395C141.678 336.984 140.664 335.551 139.737 334.073C137.907 331.251 136.364 328.318 135.085 325.253C131.667 317.094 130.123 308.009 130.277 297.446V294.359H129.814C118.127 294.359 108.204 292.176 99.384 287.589C96.319 285.98 93.386 284.105 90.563 281.922C90.519 281.9 90.497 281.856 90.453 281.834C84.963 277.6 80.42 272.661 76.23 267.347C73.165 263.51 70.299 259.452 67.41 255.285C67.035 254.755 66.66 254.226 66.285 253.675C57.046 240.378 48.314 227.809 33.87 220.885L20.397 214.424L33.87 207.963C48.314 201.039 57.046 188.492 66.285 175.173C66.66 174.622 67.035 174.093 67.41 173.563C70.299 169.396 73.165 165.338 76.23 161.502C80.42 156.187 84.963 151.248 90.453 147.014C90.497 146.992 90.519 146.948 90.563 146.926C93.386 144.765 96.319 142.868 99.384 141.281C108.315 136.628 118.414 134.423 130.277 134.511V131.291C130.123 120.817 131.667 111.754 135.085 103.595C136.364 100.53 137.907 97.598 139.737 94.775C140.664 93.298 141.678 91.864 142.78 90.453C145.647 86.748 148.844 83.463 152.24 80.442C155.724 77.31 159.473 74.444 163.376 71.621C165.846 69.835 168.382 68.093 170.94 66.307C184.237 57.045 196.805 48.313 203.73 33.892L210.191 20.419L216.652 33.892C223.576 48.313 236.145 57.045 249.441 66.307C251.999 68.093 254.513 69.835 256.983 71.621C260.886 74.422 264.635 77.31 268.163 80.442C271.559 83.485 274.734 86.748 277.601 90.453C278.703 91.864 279.718 93.298 280.666 94.775C282.496 97.598 284.04 100.53 285.319 103.595C288.736 111.754 290.28 120.861 290.104 131.424V134.489C302.077 134.467 312.111 136.65 321.019 141.281C324.084 142.868 327.017 144.743 329.84 146.926C329.884 146.948 329.906 146.992 329.95 147.014C335.441 151.248 339.983 156.187 344.173 161.524C347.26 165.383 350.105 169.44 352.993 173.608C353.368 174.115 353.721 174.644 354.096 175.173C363.357 188.47 372.09 201.039 386.511 207.963L400.006 214.424L386.511 220.885ZM390.326 200.003C377.999 194.093 369.906 182.45 361.351 170.123C358.66 166.22 355.904 162.295 352.993 158.458C350.259 154.864 347.37 151.358 344.173 148.028C341.483 145.206 338.572 142.515 335.352 140.024C333.566 138.634 331.714 137.356 329.84 136.165C327.017 134.379 324.062 132.835 321.019 131.512C314.227 128.601 306.885 126.771 298.858 126.043C298.527 117.929 297.16 110.475 294.712 103.595C293.654 100.552 292.375 97.598 290.853 94.775C289.067 91.379 286.972 88.16 284.591 85.05C283.334 83.44 282.033 81.897 280.688 80.442C277.777 77.244 274.668 74.334 271.448 71.621C265.98 67.057 260.202 63.021 254.513 59.074C242.165 50.496 230.522 42.404 224.612 30.077L210.191 0L195.791 30.077C189.86 42.404 178.239 50.496 165.912 59.052C160.223 62.999 154.423 67.035 148.977 71.621C145.735 74.312 142.626 77.222 139.715 80.442C138.348 81.897 137.047 83.44 135.812 85.05C133.409 88.138 131.314 91.379 129.528 94.775C128.028 97.598 126.749 100.552 125.669 103.595C123.243 110.475 121.876 117.951 121.545 126.065C113.519 126.793 106.176 128.623 99.384 131.556C96.319 132.879 93.386 134.423 90.563 136.209C88.667 137.378 86.837 138.656 85.051 140.046C81.853 142.515 78.943 145.228 76.23 148.05C73.033 151.38 70.144 154.886 67.41 158.48C64.499 162.317 61.743 166.242 59.053 170.123C50.475 182.472 42.404 194.093 30.055 200.025L0 214.424L30.055 228.845C42.404 234.755 50.475 246.398 59.053 258.725C61.743 262.628 64.499 266.553 67.41 270.39C70.144 273.984 73.033 277.512 76.23 280.842C78.943 283.664 81.853 286.332 85.051 288.824C86.837 290.213 88.667 291.493 90.563 292.683C93.386 294.469 96.319 296.013 99.384 297.336C106.176 300.247 113.519 302.077 121.545 302.805C121.876 310.92 123.243 318.373 125.669 325.253C126.749 328.296 128.028 331.251 129.528 334.073C131.314 337.469 133.409 340.711 135.812 343.798C137.047 345.407 138.348 346.951 139.715 348.407C142.604 351.626 145.713 354.537 148.955 357.227C154.401 361.813 160.201 365.827 165.89 369.774C178.239 378.352 189.86 386.444 195.791 398.771L210.191 428.849L224.612 398.771C230.522 386.444 242.165 378.352 254.491 369.796C260.18 365.849 265.98 361.813 271.448 357.227C274.668 354.515 277.777 351.604 280.688 348.407C282.033 346.951 283.334 345.407 284.591 343.798C286.972 340.711 289.067 337.469 290.853 334.073C292.375 331.251 293.654 328.296 294.712 325.253C297.16 318.373 298.527 310.898 298.858 302.783C306.885 302.055 314.227 300.225 321.019 297.292C324.062 295.969 327.017 294.426 329.84 292.639C331.714 291.471 333.566 290.191 335.352 288.802C338.572 286.332 341.483 283.642 344.173 280.798C347.37 277.49 350.259 273.962 352.993 270.367C355.904 266.531 358.638 262.605 361.329 258.725C369.906 246.376 377.999 234.755 390.326 228.845L420.403 214.424L390.326 200.003Z" fill="#0A0500"/>
<path d="M352.993 217.423C349.796 220.797 346.885 224.303 344.173 227.831C340.909 232.065 337.954 236.343 335.088 240.467C333.301 243.047 331.559 245.538 329.839 247.898C326.929 251.933 324.062 255.616 321.019 258.791C319.321 260.533 317.601 262.121 315.771 263.532C308.935 268.824 301.129 271.184 290.478 271.184H282.959L266.972 271.206V291.36L266.95 297.513V297.799C267.126 309.001 264.767 317.16 259.298 324.216C259.033 324.569 258.747 324.922 258.46 325.253C255.88 328.406 252.771 331.273 249.265 334.074C245.362 337.205 240.951 340.248 236.233 343.533C233.961 345.121 231.646 346.731 229.309 348.407C225.494 351.141 221.657 354.03 217.93 357.227C215.262 359.454 212.682 361.858 210.19 364.438C207.721 361.858 205.118 359.454 202.494 357.227C198.746 354.03 194.909 351.141 191.094 348.407C188.757 346.731 186.419 345.099 184.126 343.511C179.429 340.248 175.041 337.183 171.138 334.074C167.632 331.251 164.5 328.384 161.92 325.253C161.634 324.9 161.347 324.569 161.083 324.216C155.636 317.16 153.254 309.001 153.431 297.799V271.184H131.049C130.674 271.184 130.277 271.206 129.924 271.206C119.274 271.206 111.468 268.846 104.632 263.532C102.801 262.121 101.059 260.533 99.3844 258.791C96.3414 255.616 93.4744 251.955 90.5634 247.92C88.8214 245.538 87.0793 243.047 85.2933 240.467C82.4263 236.365 79.4943 232.109 76.2303 227.897C73.5403 224.347 70.6293 220.819 67.4103 217.445C66.4393 216.431 65.4473 215.417 64.4113 214.424C65.4473 213.432 66.4393 212.418 67.4103 211.403C70.6073 208.051 73.5183 204.546 76.2303 201.017C79.4723 196.784 82.4483 192.505 85.3153 188.382C87.1233 185.802 88.8434 183.288 90.5634 180.929C93.4744 176.893 96.3414 173.233 99.3844 170.057C101.059 168.315 102.801 166.728 104.632 165.317C111.468 160.024 119.274 157.665 129.924 157.665H137.444L153.431 157.643V131.049C153.254 119.847 155.614 111.688 161.083 104.632C161.347 104.279 161.634 103.926 161.92 103.596C164.5 100.442 167.61 97.5758 171.116 94.7748C175.019 91.6438 179.429 88.6008 184.148 85.3148C186.419 83.7278 188.757 82.1178 191.094 80.4418C194.909 77.7078 198.746 74.8188 202.494 71.6218C205.118 69.3938 207.721 66.9908 210.19 64.4108C212.66 66.9908 215.262 69.3938 217.908 71.6218C221.635 74.8188 225.494 77.7078 229.287 80.4418C231.624 82.1178 233.961 83.7498 236.255 85.3368C240.974 88.6008 245.362 91.6658 249.265 94.7748C252.771 97.5978 255.88 100.464 258.46 103.596C258.747 103.948 259.033 104.279 259.298 104.632C264.767 111.688 267.126 119.847 266.95 131.049V131.336L266.972 137.466V157.665H289.354C289.728 157.665 290.103 157.643 290.478 157.643C301.129 157.643 308.935 160.024 315.771 165.317C317.601 166.728 319.343 168.315 321.019 170.057C324.062 173.233 326.929 176.893 329.839 180.929C331.559 183.31 333.301 185.802 335.088 188.382C337.954 192.505 340.931 196.761 344.173 200.995C346.907 204.546 349.796 208.051 352.993 211.425C353.963 212.439 354.956 213.432 355.992 214.424C354.956 215.417 353.963 216.409 352.993 217.423ZM352.993 197.952C349.884 194.049 346.995 190.014 344.173 185.956C343.555 185.074 342.96 184.214 342.342 183.332C339.013 178.547 335.771 173.894 332.331 169.639C331.515 168.624 330.677 167.632 329.839 166.662C327.149 163.574 324.305 160.774 321.173 158.348C321.129 158.304 321.063 158.26 321.019 158.238C312.309 151.513 302.452 148.646 289.221 148.845H275.792L275.77 131.314C275.947 120.178 273.874 111.269 269.243 103.596C268.361 102.096 267.369 100.641 266.266 99.2298C265.075 97.6858 263.774 96.2078 262.407 94.7748C257.358 89.5268 251.183 85.0058 244.656 80.4418C243.554 79.6478 242.407 78.8758 241.282 78.0818C238.239 75.9658 235.174 73.8488 232.153 71.6218C224.127 65.7338 216.409 59.2508 210.19 50.8268C203.972 59.2508 196.254 65.7338 188.205 71.6218C185.206 73.8488 182.141 75.9658 179.12 78.0598C177.974 78.8538 176.827 79.6478 175.702 80.4418C169.175 85.0288 163.023 89.5488 157.973 94.7748C156.606 96.2078 155.305 97.6858 154.114 99.2298C153.012 100.641 152.019 102.096 151.138 103.596C146.485 111.269 144.434 120.002 144.61 131.182V148.822L131.292 148.845C118.105 148.646 107.961 151.623 99.3844 158.238C99.3404 158.26 99.2733 158.304 99.2293 158.348C96.0983 160.774 93.2534 163.597 90.5634 166.662C86.1754 171.667 82.2063 177.401 78.0823 183.332C77.4653 184.214 76.8473 185.118 76.2303 186C73.4743 189.947 70.5633 194.005 67.4103 197.93C62.6473 203.884 57.2444 209.617 50.7614 214.424C57.2444 219.231 62.6473 224.965 67.4103 230.941C70.5853 234.888 73.4743 238.945 76.2303 242.892C76.8473 243.774 77.4653 244.656 78.0603 245.516C82.1843 251.448 86.1754 257.181 90.5634 262.187C93.2534 265.274 96.0983 268.097 99.2293 270.522C99.2733 270.566 99.3404 270.61 99.3844 270.633C108.072 277.336 117.884 280.203 131.181 280.004H144.61V297.557C144.434 308.671 146.529 317.579 151.138 325.253C152.019 326.752 153.034 328.208 154.114 329.619C155.305 331.163 156.606 332.64 157.973 334.074C163.023 339.299 169.197 343.842 175.724 348.407C176.827 349.2 177.974 349.972 179.098 350.766C182.141 352.883 185.206 355 188.227 357.227C196.254 363.115 203.994 369.597 210.19 378.021C216.409 369.597 224.149 363.115 232.175 357.227C235.196 355 238.261 352.883 241.282 350.788C242.429 349.994 243.554 349.2 244.678 348.407C251.205 343.842 257.358 339.299 262.407 334.074C263.774 332.64 265.075 331.163 266.266 329.619C267.369 328.208 268.361 326.752 269.265 325.253C273.918 317.579 275.947 308.847 275.77 297.667L275.792 280.026L289.111 280.004C302.342 280.203 312.419 277.226 321.019 270.61C321.063 270.588 321.129 270.544 321.173 270.5C324.305 268.075 327.149 265.252 329.839 262.165C334.227 257.159 338.219 251.426 342.342 245.494C342.96 244.612 343.555 243.752 344.173 242.87C346.995 238.835 349.884 234.8 352.993 230.896C357.778 224.877 363.092 219.187 369.575 214.424C363.115 209.639 357.778 203.972 352.993 197.952Z" fill="#0A0500"/>
<path d="M226.789 132.872L217.519 126.085L210.732 116.816C210.421 115.691 209.909 115.691 209.597 116.816L202.81 126.085L193.54 132.872C192.415 133.184 192.415 133.696 193.54 134.008L202.81 140.795L209.596 150.064C209.908 151.189 210.42 151.189 210.732 150.064L217.519 140.795L226.789 134.008C227.914 133.696 227.914 133.184 226.789 132.872Z" fill="#12120D"/>
<path d="M226.789 294.839L217.519 288.052L210.733 278.783C210.421 277.658 209.909 277.658 209.597 278.783L202.81 288.052L193.54 294.839C192.415 295.151 192.415 295.663 193.54 295.975L202.81 302.762L209.596 312.031C209.908 313.156 210.421 313.156 210.732 312.031L217.519 302.762L226.789 295.975C227.914 295.663 227.914 295.151 226.789 294.839Z" fill="#12120D"/>
<path d="M123.462 216.958L133.849 195.635L144.675 216.958H123.462ZM173.893 237.951C169.328 237.951 167.212 236.319 164.323 230.718L142.448 187.696L142.294 187.41H132.768L132.614 187.696L111.07 230.718C108.335 236.164 106.108 237.951 101.918 237.951H101.433V240.509H124.785V237.951H124.322C120.265 237.951 117.971 237.157 117.089 235.569C116.053 233.827 116.604 230.938 118.677 226.749L121.235 221.478H147.012L150.871 229.086C152.415 232.129 152.834 234.334 152.062 235.679C150.938 237.642 147.344 237.951 143.925 237.951H143.418V240.509H174.422V237.951H173.893Z" fill="#12120D"/>
<path d="M187.631 187.41V189.968H191.049C194.313 189.968 196.099 191.842 196.099 195.37V232.482C196.099 236.055 194.313 237.951 191.049 237.951H187.631V240.509H219.428V237.951H213.453C209.748 237.951 207.697 236.01 207.697 232.482V216.628H216.275C222.472 216.628 224.324 218.745 224.39 225.889H227.808V203.243H224.39C224.324 210.233 222.428 212.284 216.275 212.284H207.697V191.732H226.772C238.459 191.732 242.604 195.216 243.155 205.448H246.948V187.41H187.631Z" fill="#12120D"/>
<path d="M321.173 221.655C321.129 221.92 321.085 222.162 321.018 222.405C314.756 252.879 257.291 246.154 260.157 213.959C258.724 192.746 287.721 180.199 306.355 188.402C309.75 189.24 314.668 193.738 314.425 186.903H317.512V207.741H313.345C310.037 181.235 271.381 187.211 273.454 213.805C271.734 238.149 310.081 245.735 317.424 221.655H321.173Z" fill="#12120D"/>
</svg>
